<svg width="78" height="68" viewBox="0 0 78 68" fill="none" xmlns="http://www.w3.org/2000/svg">
<g id="a" clip-path="url(#clip0_8862_4573)">
<path id="Vector" d="M39 62.9072C28.4845 62.9072 18.76 58.1394 12.32 49.8264C5.88018 41.5134 3.69401 30.9062 6.32182 20.7241L7.95528 14.3949C9.52938 8.29575 15.0281 4.03613 21.3268 4.03613H56.6733C62.9722 4.03613 68.4707 8.29575 70.0446 14.3949L71.6783 20.7241C74.3061 30.9062 72.1197 41.5136 65.6797 49.8266C59.2399 58.1394 49.5156 62.9072 39 62.9072Z" fill="white"/>
<path id="Vector_2" d="M56.6732 9.12906C61.0355 9.12906 64.8451 12.0803 65.9353 16.3042L67.5689 22.6337C72.3888 41.3094 58.2877 59.5119 39 59.5119C19.7124 59.5119 5.61119 41.3094 10.4311 22.6337L12.0647 16.3042C13.1549 12.0803 16.9646 9.12906 21.3268 9.12906H56.6732ZM56.6732 0.640991H21.3268C13.0922 0.640991 5.90379 6.20971 3.84595 14.183L2.2124 20.5125C0.705661 26.3506 0.585882 32.2627 1.85642 38.0845C3.05165 43.5616 5.50985 48.8142 8.96509 53.2744C12.4204 57.7347 16.892 61.4275 21.8966 63.9535C27.2162 66.6386 32.9706 68 38.9999 68C45.0293 68 50.7838 66.6386 56.1034 63.9535C61.108 61.4275 65.5797 57.7347 69.0349 53.2744C72.4902 48.8141 74.9484 43.5616 76.1436 38.0845C77.4142 32.2627 77.2943 26.3506 75.7876 20.5125L74.154 14.183C72.0962 6.20971 64.9078 0.640991 56.6732 0.640991Z" fill="#704FE6"/>
<path id="Vector_3" d="M66.7151 13.2637C67.4299 14.6322 67.1454 16.3113 66.0113 17.3588C62.5019 20.6002 58.5612 23.3778 54.5383 25.9467C49.33 28.9633 43.1779 30.0905 37.2057 29.8631C32.269 29.6661 27.5259 27.8039 23.3837 25.181C20.6556 23.4036 18.2365 21.1967 15.7733 19.0798C14.5267 17.9786 13.3063 16.8411 12.1825 15.6184C11.1855 14.5337 10.9994 12.9305 11.7172 11.6439C11.7433 11.5972 11.7695 11.5505 11.7958 11.5036C12.8638 9.60297 15.4115 9.16135 17.0412 10.6094C20.4196 13.6112 23.9566 16.4263 27.8196 18.8014C32.1043 21.3529 37.3245 22.4071 42.2476 21.521C48.1468 20.7571 53.7048 18.0816 58.5056 14.6694C59.1406 14.1916 60.2625 13.213 61.3657 12.224C63.0234 10.7381 65.6371 11.209 66.6715 13.1803C66.6861 13.2081 66.7006 13.2359 66.7151 13.2637Z" fill="#FFB802"/>
<path id="Vector_4" d="M68.6351 30.3447C67.9835 30.386 67.2807 30.4486 67.0378 30.5354C64.471 31.6932 64.2537 35.0273 63.4898 37.4107C62.7564 40.4732 61.7225 43.4695 61.2133 46.5829C60.996 47.7169 60.9247 49.0462 61.9263 49.8372C61.9295 49.8403 61.9329 49.8434 61.9363 49.8465C62.4612 50.3287 63.2952 50.2242 63.6952 49.6342C64.4402 48.5351 65.5973 46.8032 66.2314 45.7205C68.2295 41.4035 69.6945 36.7436 69.8626 31.9614C69.8703 31.8659 69.8778 31.7274 69.8848 31.5703C69.9161 30.8712 69.3335 30.3006 68.6351 30.3447Z" fill="#FFB802"/>
<path id="Vector_5" d="M9.26495 30.3447C9.91655 30.386 10.6194 30.4486 10.8623 30.5354C13.4291 31.6932 13.6464 35.0273 14.4103 37.4107C15.1437 40.4732 16.1776 43.4695 16.6868 46.5829C16.9041 47.7169 16.9754 49.0462 15.9738 49.8372C15.9705 49.8403 15.9672 49.8434 15.9638 49.8465C15.4389 50.3287 14.6049 50.2242 14.2049 49.6342C13.4599 48.5351 12.3028 46.8032 11.6687 45.7205C9.6706 41.4035 8.20556 36.7436 8.0375 31.9614C8.0298 31.8659 8.02228 31.7274 8.01524 31.5703C7.98395 30.8712 8.56658 30.3006 9.26495 30.3447Z" fill="#FFB802"/>
</g>
<defs>
<clipPath id="clip0_8862_4573">
<rect width="76.0294" height="67.359" fill="white" transform="translate(0.985291 0.640991)"/>
</clipPath>
</defs>
</svg>
