<svg width="634" height="634" viewBox="0 0 634 634" fill="none" xmlns="http://www.w3.org/2000/svg">
<g clip-path="url(#clip0_8651_26876)">
<path d="M406.926 492.513H218.877C204.81 492.513 193.406 503.916 193.406 517.983V517.983C193.406 532.05 204.81 543.454 218.877 543.454H406.926C420.993 543.454 432.396 532.05 432.396 517.983V517.983C432.396 503.916 420.993 492.513 406.926 492.513Z" fill="#DEC8FE"/>
<path d="M627.845 390.437C623.882 415.165 619.46 436.906 602.428 447.604C600.049 449.105 597.424 450.385 594.527 451.419C588.694 453.519 581.737 454.651 573.377 454.643C569.743 454.733 566.289 454.807 562.818 454.815C560.759 454.832 558.692 454.824 556.583 454.766C556.247 454.766 555.919 454.766 555.582 454.75C555.533 454.848 555.484 454.947 555.426 455.045C554.86 456.202 554.27 457.318 553.654 458.417C540.856 481.118 517.023 494.031 492.623 504.106C466.189 512.236 439.493 518.258 411.894 520.662C368.56 524.444 324.552 523.788 281.103 522.664C245.333 521.737 209.349 516.831 174.145 510.661C164.825 509.029 154.504 507.642 145.636 504.254C119.669 494.327 94.2611 481.249 81.397 456.579C80.8063 456.612 80.2156 456.645 79.633 456.67C76.7124 456.801 73.8574 456.858 70.9695 456.899C68.5573 456.932 66.1209 456.94 63.6104 456.94C52.1654 457.244 43.2886 455.357 36.2904 451.731C33.3286 450.196 30.7033 448.359 28.3653 446.234C27.7744 445.701 27.2001 445.151 26.6423 444.585C23.9267 441.804 21.6377 438.637 19.6687 435.125C13.4417 424.083 10.3816 409.742 7.46897 394.195C2.22657 367.564 -3.43443 324.049 4.57307 291.864C5.80378 286.9 7.36247 282.199 9.30697 277.876C11.4563 273.052 14.0899 268.687 17.2568 264.938C17.3469 264.831 17.429 264.716 17.5276 264.61C17.6259 264.487 17.7162 264.372 17.8228 264.257C19.8164 261.804 22.1628 259.736 24.7553 258.014C24.8785 257.931 25.0015 257.849 25.1327 257.767C30.0305 254.617 35.7162 252.673 41.4427 251.623C44.068 251.138 50.7789 249.67 57.6788 248.858C60.4435 248.53 63.2494 248.3 65.8337 248.292C66.0881 246.88 66.3587 245.478 66.6295 244.091C76.4252 195.276 103.04 159.604 158.188 129.208C257.327 73.4851 382.031 79.4988 479.964 134.795C526.137 160.86 550.955 191.937 562.506 233.122C563.688 237.347 564.738 241.679 565.649 246.126L565.846 246.117C568.151 246.076 570.645 246.199 573.107 246.413C573.459 246.437 573.804 246.47 574.14 246.503C580.95 247.143 587.521 248.406 590.13 248.817C593.756 249.383 597.383 250.302 600.812 251.663C603.536 252.755 606.136 254.117 608.524 255.79C610.788 257.39 612.872 259.277 614.652 261.492C639.839 289.731 633.867 354.938 627.845 390.437Z" fill="white"/>
<path d="M540.625 292.891C543.481 317.547 543.91 342.483 541.901 367.222C540.594 383.318 538.094 399.813 529.865 413.708C516.484 436.301 490.512 448.039 465.372 455.624C424.479 467.961 381.74 472.93 339.147 476.139C298.539 479.2 257.488 480.62 217 475.307C181.808 470.689 138.785 462.894 113.889 435.355C103.176 423.505 95.3788 409.076 90.4682 393.919C81.3762 365.856 81.1432 335.804 81.0219 306.306C80.9504 288.904 81.0086 270.9 88.0666 254.994C100.458 227.068 131.099 212.356 160.268 203.27C247.663 176.049 341.806 178.816 432.279 192.725C465.487 197.83 501.633 206.3 521.613 233.314C533.331 249.158 537.642 269.216 540.124 288.766C540.299 290.14 540.466 291.515 540.625 292.891Z" fill="#DEC8FE"/>
<path d="M75.3066 444.126C72.6094 435.571 70.5996 425.636 68.8805 416.593C63.8354 379.909 61.6308 343.361 62.0357 306.204C62.6445 286.839 62.9356 267.457 65.9324 248.297C65.9009 248.29 65.8691 248.286 65.838 248.276C65.8369 248.282 65.8358 248.287 65.8348 248.293C63.2503 248.302 60.4473 248.528 57.6784 248.86C52.123 289.293 53.2729 330.499 55.9252 371.144C58.0209 400.055 60.6182 429.673 70.9704 456.9C73.858 456.862 76.7125 456.8 79.6317 456.671C78.0104 452.557 76.6175 448.342 75.3066 444.126Z" fill="#FFB802"/>
<path d="M572.399 370.584C570.67 397.494 570.044 424.759 564.559 451.235C564.321 452.428 564.082 453.612 563.835 454.805C561.448 454.82 559.052 454.803 556.597 454.737C556.589 454.745 556.59 454.761 556.581 454.77L556.573 454.77L555.428 455.047C555.506 454.71 555.575 454.373 555.653 454.035C557.494 445.576 559.196 437.095 559.886 428.454C563.22 396.871 564.238 365.186 567.367 333.605C568.714 312.567 567.952 291.49 567.265 270.445C566.871 262.344 566.862 254.164 565.845 246.12C568.15 246.073 570.646 246.197 573.11 246.41C573.455 246.438 573.8 246.467 574.137 246.503C575.268 256.408 575.171 266.469 575.655 276.431C577.275 307.818 575.762 339.386 572.399 370.584Z" fill="#FFB802"/>
<path d="M600.813 251.666C598.336 266.697 597.947 281.988 596.547 297.153C594.993 315.593 595.893 334.116 594.421 352.556C592.537 376.416 592.401 400.335 592.79 424.255C593.196 433.283 593.447 442.42 594.526 451.423C597.425 450.384 600.05 449.102 602.426 447.602C601.208 436.107 600.891 424.509 600.912 412.965C600.216 386.989 602.164 361.093 603.538 335.181C603.629 319.647 603.85 304.695 605.508 289.133C606.05 277.976 606.855 266.815 608.523 255.79C606.138 254.115 603.535 252.754 600.813 251.666Z" fill="#FFB802"/>
<path d="M33.4763 355.693C31.5236 337.069 31.9339 318.298 29.891 299.674C28.2502 285.711 27.4462 271.616 25.1326 257.768C25.0014 257.849 24.8784 257.932 24.7552 258.014C22.1628 259.736 19.8163 261.804 17.8228 264.257C19.1763 273.38 20.0378 282.585 20.727 291.798C22.7945 307.501 23.4098 322.63 23.9019 338.349C25.9612 364.537 28.5948 390.692 28.5783 417.002C28.8491 426.708 28.8901 436.455 28.3652 446.168C30.7032 448.318 33.3285 450.18 36.2903 451.731C36.8235 443.904 36.8564 436.02 36.996 428.209C36.758 403.991 35.9869 379.788 33.4763 355.693Z" fill="#FFB802"/>
<path d="M522.781 318.299C522.327 341.75 518.491 365.281 513.857 388.348C512.113 397.03 510.138 405.962 504.997 413.172C498.329 422.522 487.298 427.652 476.481 431.51C449.197 441.244 420.273 445.42 391.483 448.63C348.579 453.414 305.377 456.153 262.195 455.151C240.45 454.646 218.722 453.191 197.129 450.557C178.068 448.232 159.27 446.704 142.653 436.659C130.509 429.318 121.208 417.708 115.219 404.962C107.441 388.41 104.753 369.927 103.658 351.671C102.369 330.157 103.163 308.578 103.958 287.04C104.319 277.268 104.729 267.256 108.46 258.216C116.101 239.7 135.776 229.318 154.74 222.869C206.8 205.167 263.039 205.901 318.026 205.938C368.445 205.971 419.995 205.43 467.739 221.635C482.222 226.551 496.74 233.386 506.285 245.337C514.467 255.582 518.232 268.664 520.345 281.604C522.331 293.762 523.02 306.019 522.781 318.299Z" fill="#704FE6"/>
<path d="M214.12 313.734C215.13 318.266 215.408 322.976 215.19 327.606C214.92 333.353 213.841 339.147 211.433 344.397C209.692 348.195 206.39 352.349 201.846 352.519C201.843 352.519 201.839 352.519 201.836 352.519C199.588 352.597 197.631 351.81 195.883 350.442C194.569 349.417 193.577 348.011 192.734 346.583C190.846 343.251 189.805 339.512 189.212 335.74C188.2 329.332 188.332 322.65 189.621 316.29C190.112 313.886 190.77 311.498 191.702 309.225C192.663 306.886 193.888 304.551 195.68 302.739C196.357 302.056 197.085 301.452 197.865 300.958C198.114 300.743 198.392 300.556 198.694 300.404C198.723 300.39 198.748 300.38 198.776 300.366C198.855 300.328 198.937 300.292 199.019 300.26C200.604 299.589 202.284 299.321 204.006 299.67C204.09 299.686 204.174 299.706 204.259 299.725C205.31 299.965 206.331 300.42 207.184 301.036C207.253 301.085 207.32 301.137 207.386 301.192C208.124 301.723 208.799 302.358 209.392 303.048C211.947 306.022 213.281 309.965 214.12 313.734Z" fill="white"/>
<path d="M417.523 311.054C418.532 315.586 418.811 320.296 418.592 324.926C418.323 330.673 417.243 336.467 414.835 341.717C413.095 345.515 409.793 349.669 405.248 349.839C405.245 349.839 405.242 349.839 405.239 349.839C402.99 349.917 401.033 349.13 399.286 347.762C397.971 346.737 396.979 345.331 396.137 343.903C394.249 340.571 393.208 336.832 392.615 333.06C391.603 326.652 391.735 319.97 393.024 313.611C393.515 311.206 394.173 308.818 395.104 306.545C396.066 304.206 397.29 301.871 399.083 300.059C399.759 299.377 400.487 298.772 401.267 298.278C401.516 298.064 401.794 297.877 402.097 297.724C402.125 297.71 402.15 297.7 402.179 297.686C402.257 297.648 402.339 297.613 402.422 297.581C404.006 296.909 405.686 296.641 407.409 296.99C407.493 297.007 407.577 297.026 407.661 297.045C408.712 297.285 409.733 297.741 410.587 298.357C410.656 298.405 410.722 298.457 410.788 298.513C411.526 299.043 412.201 299.679 412.794 300.368C415.349 303.342 416.683 307.285 417.523 311.054Z" fill="white"/>
<path d="M325.088 360.666C326.834 360.962 328.425 361.689 328.86 363.308C329.115 364.254 328.861 365.254 328.607 366.2C325.114 379.248 319.317 394.304 303.38 395.184C296.372 395.571 289.464 392.336 284.465 387.409C279.466 382.483 276.226 376.002 274.169 369.291C273.359 366.65 272.94 363.264 275.139 361.593C276.372 360.656 278.043 360.613 279.591 360.608C293.951 360.568 308.311 360.528 322.67 360.487C323.444 360.485 324.282 360.53 325.088 360.666Z" fill="white"/>
</g>
<defs>
<clipPath id="clip0_8651_26876">
<rect width="632.533" height="453.198" fill="white" transform="translate(0.582031 90.2559)"/>
</clipPath>
</defs>
</svg>
