<svg width="634" height="633" viewBox="0 0 634 633" fill="none" xmlns="http://www.w3.org/2000/svg">
<g clip-path="url(#clip0_8650_26798)">
<path d="M406.926 491.923H218.877C204.81 491.923 193.406 503.326 193.406 517.393V517.393C193.406 531.46 204.81 542.864 218.877 542.864H406.926C420.993 542.864 432.396 531.46 432.396 517.393V517.393C432.396 503.326 420.993 491.923 406.926 491.923Z" fill="#DEC8FE"/>
<path d="M627.845 389.847C623.882 414.575 619.46 436.316 602.428 447.014C600.049 448.516 597.424 449.795 594.527 450.829C588.694 452.929 581.737 454.062 573.377 454.053C569.743 454.144 566.289 454.217 562.818 454.226C560.759 454.242 558.692 454.234 556.583 454.176C556.247 454.176 555.919 454.176 555.582 454.16C555.533 454.258 555.484 454.357 555.426 454.455C554.86 455.612 554.269 456.728 553.654 457.827C540.856 480.528 517.022 493.442 492.623 503.516C466.189 511.647 439.493 517.669 411.894 520.072C368.56 523.854 324.552 523.198 281.103 522.074C245.333 521.147 209.349 516.241 174.145 510.072C164.825 508.439 154.504 507.052 145.636 503.664C119.669 493.737 94.261 480.659 81.3969 455.99C80.8062 456.022 80.2155 456.055 79.6329 456.08C76.7123 456.211 73.8573 456.268 70.9694 456.309C68.5572 456.342 66.1208 456.351 63.6103 456.351C52.1653 456.654 43.2885 454.767 36.2903 451.141C33.3285 449.607 30.7032 447.769 28.3652 445.644C27.7743 445.111 27.2 444.561 26.6422 443.995C23.9266 441.214 21.6376 438.047 19.6687 434.536C13.4416 423.493 10.3815 409.152 7.4689 393.605C2.2266 366.974 -3.4344 323.459 4.573 291.274C5.8037 286.311 7.3624 281.61 9.3069 277.286C11.4563 272.462 14.0898 268.097 17.2567 264.348C17.3468 264.241 17.4289 264.127 17.5275 264.02C17.6258 263.897 17.7162 263.782 17.8227 263.667C19.8163 261.214 22.1628 259.147 24.7552 257.424C24.8784 257.342 25.0014 257.26 25.1326 257.178C30.0304 254.027 35.7161 252.083 41.4426 251.033C44.0679 250.549 50.7788 249.08 57.6787 248.268C60.4434 247.94 63.2494 247.71 65.8336 247.702C66.088 246.291 66.3586 244.888 66.6294 243.501C76.4251 194.686 103.04 159.014 158.188 128.618C257.327 72.8952 382.031 78.9089 479.964 134.205C526.137 160.27 550.955 191.347 562.506 232.532C563.688 236.757 564.738 241.089 565.649 245.536L565.846 245.528C568.151 245.487 570.645 245.61 573.106 245.823C573.459 245.848 573.804 245.88 574.14 245.913C580.95 246.553 587.521 247.817 590.13 248.227C593.756 248.793 597.382 249.712 600.812 251.074C603.536 252.165 606.136 253.527 608.524 255.2C610.788 256.8 612.872 258.687 614.652 260.902C639.839 289.141 633.867 354.348 627.845 389.847Z" fill="white"/>
<path d="M540.625 292.301C543.481 316.957 543.91 341.893 541.901 366.632C540.594 382.728 538.094 399.223 529.865 413.118C516.484 435.711 490.512 447.449 465.372 455.034C424.479 467.371 381.74 472.34 339.147 475.55C298.539 478.61 257.488 480.03 217 474.717C181.808 470.099 138.785 462.305 113.889 434.765C103.176 422.915 95.3788 408.486 90.4682 393.329C81.3763 365.267 81.1432 335.214 81.0219 305.716C80.9504 288.315 81.0086 270.31 88.0666 254.404C100.458 226.478 131.099 211.766 160.268 202.68C247.663 175.459 341.806 178.226 432.279 192.135C465.487 197.24 501.633 205.71 521.613 232.724C533.331 248.568 537.642 268.626 540.124 288.176C540.299 289.55 540.466 290.925 540.625 292.301Z" fill="#DEC8FE"/>
<path d="M75.3061 443.536C72.6089 434.981 70.5991 425.047 68.88 416.003C63.8349 379.32 61.6304 342.771 62.0352 305.614C62.644 286.249 62.9351 266.867 65.9319 247.707C65.9005 247.7 65.8687 247.696 65.8375 247.687C65.8365 247.692 65.8353 247.698 65.8343 247.703C63.2499 247.713 60.4468 247.938 57.6779 248.27C52.1225 288.703 53.2725 329.909 55.9248 370.554C58.0204 399.465 60.6177 429.084 70.9699 456.311C73.8575 456.273 76.712 456.21 79.6312 456.082C78.0099 451.968 76.617 447.752 75.3061 443.536Z" fill="#FFB802"/>
<path d="M572.399 369.994C570.67 396.905 570.044 424.17 564.559 450.645C564.321 451.838 564.082 453.023 563.835 454.215C561.448 454.231 559.052 454.213 556.597 454.147C556.589 454.155 556.59 454.172 556.581 454.18L556.573 454.18L555.428 454.458C555.506 454.12 555.575 453.783 555.653 453.445C557.494 444.986 559.196 436.505 559.886 427.864C563.22 396.281 564.238 364.596 567.367 333.016C568.714 311.977 567.952 290.9 567.265 269.856C566.871 261.754 566.862 253.574 565.845 245.53C568.15 245.484 570.646 245.607 573.11 245.82C573.455 245.849 573.8 245.877 574.137 245.913C575.268 255.818 575.171 265.879 575.655 275.841C577.275 307.228 575.762 338.796 572.399 369.994Z" fill="#FFB802"/>
<path d="M600.813 251.076C598.337 266.107 597.947 281.398 596.547 296.563C594.993 315.003 595.893 333.526 594.421 351.966C592.537 375.826 592.401 399.745 592.79 423.665C593.196 432.693 593.447 441.83 594.526 450.833C597.425 449.794 600.05 448.512 602.426 447.012C601.208 435.517 600.891 423.919 600.912 412.375C600.216 386.399 602.164 360.503 603.538 334.591C603.629 319.058 603.85 304.105 605.508 288.543C606.05 277.386 606.855 266.225 608.523 255.2C606.138 253.525 603.535 252.164 600.813 251.076Z" fill="#FFB802"/>
<path d="M33.4765 355.103C31.5238 336.479 31.934 317.708 29.8911 299.085C28.2503 285.121 27.4463 271.026 25.1327 257.178C25.0015 257.26 24.8785 257.342 24.7553 257.424C22.1629 259.147 19.8164 261.214 17.8228 263.667C19.1764 272.79 20.0379 281.995 20.7271 291.209C22.7946 306.911 23.4099 322.04 23.902 337.759C25.9613 363.947 28.5948 390.102 28.5784 416.413C28.8492 426.118 28.8902 435.865 28.3653 445.578C30.7033 447.728 33.3286 449.59 36.2904 451.141C36.8236 443.314 36.8565 435.43 36.9961 427.62C36.7581 403.401 35.987 379.199 33.4765 355.103Z" fill="#FFB802"/>
<path d="M522.781 317.709C522.327 341.161 518.491 364.692 513.857 387.759C512.113 396.44 510.138 405.373 504.997 412.582C498.329 421.932 487.298 427.062 476.481 430.921C449.197 440.654 420.273 444.83 391.483 448.04C348.579 452.824 305.377 455.563 262.195 454.561C240.45 454.057 218.722 452.601 197.129 449.967C178.068 447.642 159.27 446.114 142.653 436.069C130.509 428.728 121.208 417.118 115.219 404.373C107.441 387.82 104.753 369.337 103.658 351.081C102.369 329.567 103.163 307.988 103.958 286.45C104.319 276.678 104.729 266.666 108.46 257.627C116.101 239.111 135.776 228.728 154.74 222.279C206.8 204.577 263.039 205.312 318.026 205.348C368.445 205.381 419.995 204.84 467.739 221.045C482.222 225.961 496.74 232.796 506.285 244.747C514.467 254.992 518.232 268.074 520.345 281.014C522.331 293.172 523.02 305.43 522.781 317.709Z" fill="#704FE6"/>
<path d="M331.977 360.135C333.723 360.431 335.314 361.158 335.749 362.776C336.004 363.722 335.75 364.722 335.496 365.669C332.003 378.717 326.206 393.773 310.27 394.653C303.262 395.039 296.354 391.805 291.354 386.878C286.355 381.952 283.115 375.47 281.058 368.76C280.249 366.119 279.829 362.733 282.028 361.062C283.261 360.125 284.932 360.082 286.48 360.077C300.84 360.037 315.2 359.997 329.56 359.956C330.333 359.954 331.172 359.999 331.977 360.135Z" fill="white"/>
<path d="M190.559 327.422C189.228 327.232 187.992 326.765 187.303 325.66C186.412 324.232 186.869 322.383 187.352 320.771C190.216 311.221 193.75 300.788 202.358 295.757C210.714 290.872 221.958 292.891 229.435 299.038C235.126 303.716 250.961 327.456 235.226 327.481L192.747 327.547C192.038 327.548 191.284 327.526 190.559 327.422Z" fill="white"/>
<path d="M378.022 327.422C376.69 327.232 375.455 326.765 374.766 325.66C373.875 324.232 374.331 322.383 374.815 320.771C377.679 311.221 381.213 300.788 389.82 295.757C398.177 290.872 409.421 292.891 416.898 299.038C422.589 303.716 438.424 327.456 422.689 327.481L380.21 327.547C379.501 327.548 378.747 327.526 378.022 327.422Z" fill="white"/>
</g>
<defs>
<clipPath id="clip0_8650_26798">
<rect width="632.533" height="453.198" fill="white" transform="translate(0.582031 89.666)"/>
</clipPath>
</defs>
</svg>
