<svg width="634" height="633" viewBox="0 0 634 633" fill="none" xmlns="http://www.w3.org/2000/svg">
<g clip-path="url(#clip0_8651_26863)">
<path d="M406.926 491.982H218.877C204.81 491.982 193.406 503.386 193.406 517.453V517.453C193.406 531.52 204.81 542.924 218.877 542.924H406.926C420.993 542.924 432.396 531.52 432.396 517.453V517.453C432.396 503.386 420.993 491.982 406.926 491.982Z" fill="#DEC8FE"/>
<path d="M627.845 389.907C623.882 414.634 619.46 436.375 602.428 447.074C600.049 448.575 597.424 449.855 594.527 450.889C588.694 452.989 581.737 454.121 573.377 454.113C569.743 454.203 566.289 454.277 562.818 454.285C560.759 454.302 558.692 454.293 556.583 454.236C556.247 454.236 555.919 454.236 555.582 454.219C555.533 454.318 555.484 454.416 555.426 454.515C554.86 455.672 554.269 456.788 553.654 457.887C540.856 480.588 517.022 493.501 492.623 503.576C466.189 511.706 439.493 517.728 411.894 520.132C368.56 523.914 324.552 523.258 281.103 522.134C245.333 521.207 209.349 516.301 174.145 510.131C164.825 508.498 154.504 507.112 145.636 503.724C119.669 493.796 94.261 480.719 81.3969 456.049C80.8062 456.082 80.2156 456.115 79.6329 456.139C76.7124 456.27 73.8573 456.328 70.9694 456.369C68.5572 456.402 66.1208 456.41 63.6103 456.41C52.1653 456.714 43.2885 454.827 36.2903 451.2C33.3285 449.666 30.7032 447.828 28.3652 445.704C27.7743 445.17 27.2 444.621 26.6422 444.055C23.9266 441.273 21.6376 438.107 19.6687 434.595C13.4416 423.552 10.3815 409.211 7.4689 393.664C2.2266 367.034 -3.4344 323.519 4.573 291.334C5.8037 286.37 7.3624 281.669 9.3069 277.346C11.4563 272.521 14.0898 268.157 17.2567 264.408C17.3468 264.301 17.4289 264.186 17.5275 264.079C17.6258 263.956 17.7162 263.841 17.8227 263.727C19.8163 261.274 22.1628 259.206 24.7552 257.483C24.8784 257.401 25.0014 257.319 25.1326 257.237C30.0304 254.087 35.7161 252.142 41.4426 251.092C44.0679 250.608 50.7789 249.14 57.6787 248.327C60.4434 247.999 63.2494 247.769 65.8336 247.761C66.088 246.35 66.3586 244.947 66.6294 243.561C76.4251 194.746 103.04 159.074 158.188 128.678C257.327 72.9548 382.031 78.9685 479.964 134.265C526.137 160.329 550.955 191.407 562.506 232.592C563.688 236.817 564.738 241.149 565.649 245.595L565.846 245.587C568.151 245.546 570.645 245.669 573.106 245.882C573.459 245.907 573.804 245.94 574.14 245.973C580.95 246.613 587.521 247.876 590.13 248.286C593.756 248.852 597.382 249.771 600.812 251.133C603.536 252.224 606.136 253.586 608.524 255.26C610.788 256.86 612.872 258.747 614.652 260.962C639.839 289.201 633.867 354.407 627.845 389.907Z" fill="white"/>
<path d="M540.625 292.36C543.481 317.016 543.91 341.953 541.901 366.692C540.594 382.788 538.094 399.282 529.865 413.177C516.484 435.771 490.512 447.509 465.372 455.093C424.479 467.431 381.74 472.399 339.147 475.609C298.539 478.669 257.488 480.089 217 474.777C181.808 470.159 138.785 462.364 113.889 434.825C103.176 422.974 95.3788 408.546 90.4682 393.389C81.3763 365.326 81.1432 335.274 81.0219 305.776C80.9504 288.374 81.0086 270.37 88.0666 254.464C100.458 226.538 131.099 211.825 160.268 202.74C247.663 175.519 341.806 178.285 432.279 192.194C465.487 197.3 501.633 205.77 521.613 232.783C533.331 248.628 537.642 268.686 540.124 288.236C540.299 289.61 540.466 290.985 540.625 292.36Z" fill="#DEC8FE"/>
<path d="M75.3061 443.595C72.6089 435.04 70.5991 425.106 68.88 416.062C63.8349 379.379 61.6304 342.831 62.0352 305.674C62.644 286.309 62.9351 266.927 65.9319 247.767C65.9005 247.759 65.8687 247.755 65.8375 247.746C65.8365 247.752 65.8353 247.757 65.8343 247.763C63.2499 247.772 60.4468 247.998 57.6779 248.33C52.1225 288.763 53.2725 329.969 55.9248 370.614C58.0204 399.525 60.6177 429.143 70.9699 456.37C73.8575 456.332 76.712 456.27 79.6312 456.141C78.0099 452.027 76.617 447.812 75.3061 443.595Z" fill="#FFB802"/>
<path d="M572.399 370.054C570.67 396.964 570.044 424.229 564.559 450.705C564.321 451.897 564.082 453.082 563.835 454.275C561.448 454.29 559.052 454.272 556.597 454.206C556.589 454.215 556.59 454.231 556.581 454.239L556.573 454.24L555.428 454.517C555.506 454.18 555.575 453.842 555.653 453.505C557.494 445.046 559.196 436.564 559.886 427.924C563.22 396.34 564.238 364.656 567.367 333.075C568.714 312.036 567.952 290.96 567.265 269.915C566.871 261.814 566.862 253.634 565.845 245.59C568.15 245.543 570.646 245.666 573.11 245.88C573.455 245.908 573.8 245.936 574.137 245.973C575.268 255.878 575.171 265.938 575.655 275.901C577.275 307.288 575.762 338.856 572.399 370.054Z" fill="#FFB802"/>
<path d="M600.813 251.136C598.337 266.167 597.947 281.458 596.547 296.622C594.993 315.063 595.893 333.586 594.421 352.025C592.537 375.885 592.401 399.804 592.79 423.725C593.196 432.753 593.447 441.89 594.526 450.893C597.425 449.854 600.05 448.572 602.426 447.072C601.208 435.577 600.891 423.979 600.912 412.434C600.15 383.988 602.02 363.293 603.538 334.65C603.629 319.117 603.85 304.165 605.508 288.603C606.05 277.445 606.855 266.284 608.523 255.26C606.138 253.585 603.535 252.224 600.813 251.136Z" fill="#FFB802"/>
<path d="M33.4765 355.162C31.5238 336.539 31.934 317.768 29.8911 299.144C28.2503 285.181 27.4463 271.086 25.1327 257.237C25.0015 257.319 24.8785 257.401 24.7553 257.483C22.1629 259.206 19.8164 261.274 17.8228 263.727C19.1764 272.85 20.0379 282.055 20.7271 291.268C22.7946 306.971 23.4099 322.1 23.902 337.819C25.9613 364.006 28.5948 390.161 28.5784 416.472C28.8492 426.178 28.8903 435.924 28.3653 445.638C30.7033 447.788 33.3286 449.65 36.2904 451.201C36.8236 443.374 36.8565 435.489 36.9961 427.679C36.7581 403.46 35.987 379.258 33.4765 355.162Z" fill="#FFB802"/>
<path d="M522.781 317.768C522.327 341.22 518.491 364.751 513.857 387.818C512.113 396.499 510.138 405.432 504.997 412.641C498.329 421.992 487.298 427.122 476.481 430.98C449.197 440.714 420.273 444.889 391.483 448.099C348.579 452.883 305.377 455.623 262.195 454.621C240.45 454.116 218.722 452.66 197.129 450.027C178.068 447.702 159.27 446.174 142.653 436.128C130.509 428.787 121.208 417.178 115.219 404.432C107.441 387.88 104.753 369.397 103.658 351.141C102.369 329.627 103.163 308.048 103.958 286.51C104.319 276.738 104.729 266.726 108.46 257.686C116.101 239.17 135.776 228.787 154.74 222.339C206.8 204.637 263.039 205.371 318.026 205.407C368.445 205.441 419.995 204.9 467.739 221.105C482.222 226.021 496.74 232.855 506.285 244.807C514.467 255.052 518.232 268.134 520.345 281.074C522.331 293.232 523.02 305.489 522.781 317.768Z" fill="#704FE6"/>
<path d="M217.499 322.886C218.509 327.418 218.787 332.128 218.569 336.758C218.299 342.505 217.22 348.299 214.812 353.549C213.071 357.347 209.769 361.501 205.225 361.671L205.215 361.671C202.967 361.749 201.01 360.962 199.262 359.594C197.948 358.569 196.955 357.163 196.113 355.735C194.225 352.403 193.184 348.664 192.591 344.892C191.579 338.484 191.711 331.802 193 325.443C193.491 323.038 194.149 320.65 195.081 318.377C196.042 316.038 197.267 313.703 199.059 311.891C199.736 311.209 200.464 310.604 201.244 310.11C201.492 309.896 201.771 309.709 202.073 309.556C202.101 309.542 202.127 309.532 202.155 309.518C202.234 309.48 202.316 309.445 202.398 309.413C203.983 308.741 205.663 308.473 207.385 308.822C207.469 308.839 207.553 308.858 207.637 308.877C208.689 309.117 209.71 309.573 210.563 310.189C210.632 310.237 210.698 310.289 210.765 310.345C211.503 310.875 212.178 311.511 212.771 312.2C215.326 315.174 216.659 319.117 217.499 322.886Z" fill="white"/>
<path d="M420.901 320.206C421.911 324.739 422.189 329.449 421.971 334.078C421.701 339.826 420.622 345.619 418.214 350.869C416.473 354.667 413.171 358.822 408.627 358.991C408.623 358.991 408.62 358.992 408.617 358.992C406.368 359.069 404.412 358.283 402.664 356.915C401.35 355.889 400.357 354.483 399.515 353.055C397.627 349.723 396.586 345.984 395.993 342.213C394.981 335.804 395.113 329.122 396.402 322.763C396.893 320.359 397.551 317.971 398.483 315.697C399.444 313.359 400.669 311.023 402.461 309.212C403.138 308.529 403.866 307.925 404.646 307.43C404.894 307.216 405.173 307.029 405.475 306.877C405.503 306.863 405.529 306.852 405.557 306.838C405.636 306.8 405.718 306.765 405.8 306.733C407.385 306.061 409.065 305.793 410.787 306.143C410.871 306.159 410.955 306.178 411.039 306.198C412.091 306.437 413.111 306.893 413.965 307.509C414.034 307.558 414.1 307.61 414.166 307.665C414.905 308.195 415.579 308.831 416.173 309.521C418.727 312.494 420.061 316.437 420.901 320.206Z" fill="white"/>
<path d="M321.393 361.575C327.11 364.773 331.658 369.987 334.004 376.108C335.135 379.057 335.818 382.21 335.907 385.373C335.972 387.607 334.094 389.511 331.879 389.549C329.626 389.587 327.764 387.754 327.703 385.521C327.695 385.284 327.681 385.047 327.664 384.81C327.579 383.88 327.442 382.961 327.256 382.049C327.057 381.182 326.811 380.329 326.52 379.488C326.227 378.711 325.896 377.95 325.53 377.205C325.127 376.438 324.686 375.694 324.208 374.971C323.718 374.274 323.194 373.601 322.637 372.955C322.037 372.298 321.408 371.674 320.744 371.084C320.101 370.544 319.436 370.036 318.744 369.561C317.987 369.071 317.208 368.619 316.404 368.211C315.568 367.816 314.712 367.469 313.838 367.166C312.99 366.898 312.131 366.677 311.263 366.502C310.366 366.347 309.463 366.242 308.554 366.182C307.642 366.148 306.732 366.165 305.82 366.23C304.961 366.314 304.109 366.441 303.262 366.612C302.418 366.805 301.587 367.039 300.768 367.317C299.962 367.617 299.171 367.953 298.397 368.333C297.621 368.741 296.866 369.188 296.133 369.674C295.433 370.17 294.757 370.696 294.107 371.253C293.452 371.853 292.827 372.484 292.238 373.147C291.673 373.819 291.145 374.519 290.651 375.246C290.178 375.987 289.744 376.749 289.351 377.532C288.957 378.374 288.609 379.231 288.309 380.111C288.051 380.943 287.836 381.786 287.664 382.64C287.51 383.527 287.402 384.421 287.345 385.319C287.331 385.654 287.327 385.992 287.327 386.328C287.327 388.562 285.557 390.462 283.298 390.504C281.09 390.542 279.122 388.709 279.119 386.476C279.113 380.3 281.129 374.262 284.808 369.311C286.929 366.452 289.64 364.023 292.666 362.155C295.614 360.334 298.864 359.133 302.251 358.453C303.97 358.108 305.723 357.94 307.478 357.94C312.324 357.94 317.184 359.219 321.393 361.575Z" fill="white"/>
</g>
<defs>
<clipPath id="clip0_8651_26863">
<rect width="632.533" height="453.198" fill="white" transform="translate(0.582031 89.7256)"/>
</clipPath>
</defs>
</svg>
