<svg width="634" height="634" viewBox="0 0 634 634" fill="none" xmlns="http://www.w3.org/2000/svg">
<g clip-path="url(#clip0_8651_26980)">
<path d="M406.926 543.695H218.877C204.81 543.695 193.406 532.292 193.406 518.225C193.406 504.158 204.81 492.754 218.877 492.754H406.926C420.993 492.754 432.396 504.158 432.396 518.225C432.396 532.292 420.993 543.695 406.926 543.695Z" fill="#DEC8FE"/>
<path d="M627.845 390.678C623.882 415.406 619.46 437.147 602.428 447.845C600.049 449.347 597.423 450.626 594.527 451.66C588.694 453.76 581.737 454.893 573.377 454.884C569.743 454.975 566.289 455.048 562.818 455.057C560.759 455.073 558.692 455.065 556.583 455.007C556.247 455.007 555.919 455.007 555.582 454.991C555.533 455.09 555.484 455.188 555.426 455.286C554.86 456.443 554.269 457.559 553.654 458.658C540.856 481.359 517.022 494.273 492.623 504.347C466.189 512.478 439.493 518.5 411.894 520.903C368.56 524.686 324.552 524.029 281.103 522.905C245.333 521.978 209.349 517.072 174.145 510.903C164.825 509.27 154.504 507.883 145.636 504.495C119.669 494.568 94.261 481.491 81.3969 456.821C80.8062 456.853 80.2156 456.886 79.6329 456.911C76.7124 457.042 73.8573 457.1 70.9694 457.141C68.5573 457.173 66.1208 457.182 63.6103 457.182C52.1653 457.485 43.2885 455.598 36.2904 451.972C33.3286 450.438 30.7033 448.6 28.3652 446.475C27.7743 445.942 27.2001 445.392 26.6422 444.826C23.9266 442.045 21.6376 438.878 19.6687 435.367C13.4416 424.324 10.3815 409.983 7.46897 394.436C2.22657 367.805 -3.43443 324.29 4.57307 292.105C5.80367 287.142 7.36237 282.441 9.30687 278.117C11.4563 273.293 14.0898 268.928 17.2567 265.179C17.3468 265.072 17.4289 264.958 17.5275 264.851C17.6258 264.728 17.7162 264.613 17.8227 264.498C19.8163 262.045 22.1628 259.978 24.7552 258.255C24.8784 258.173 25.0014 258.091 25.1326 258.009C30.0305 254.858 35.7161 252.914 41.4426 251.864C44.0679 251.38 50.7789 249.911 57.6787 249.099C60.4434 248.771 63.2494 248.541 65.8336 248.533C66.088 247.122 66.3586 245.719 66.6294 244.332C76.4251 195.517 103.04 159.846 158.188 129.449C257.327 73.7262 382.031 79.74 479.964 135.036C526.137 161.101 550.955 192.178 562.506 233.363C563.688 237.588 564.738 241.92 565.649 246.367L565.846 246.359C568.151 246.318 570.645 246.441 573.106 246.654C573.459 246.679 573.804 246.712 574.14 246.744C580.949 247.384 587.521 248.648 590.13 249.058C593.756 249.624 597.382 250.543 600.812 251.905C603.536 252.996 606.136 254.358 608.524 256.031C610.788 257.631 612.872 259.518 614.652 261.733C639.839 289.972 633.866 355.179 627.845 390.678Z" fill="white"/>
<path d="M540.625 293.132C543.481 317.788 543.91 342.724 541.901 367.464C540.594 383.559 538.094 400.054 529.865 413.949C516.484 436.542 490.512 448.28 465.372 455.865C424.479 468.202 381.74 473.171 339.147 476.381C298.539 479.441 257.488 480.861 217 475.548C181.808 470.93 138.785 463.136 113.889 435.596C103.176 423.746 95.3788 409.317 90.4682 394.16C81.3763 366.098 81.1432 336.046 81.0219 306.547C80.9504 289.146 81.0086 271.141 88.0667 255.235C100.458 227.309 131.099 212.597 160.268 203.511C247.663 176.29 341.806 179.057 432.279 192.966C465.487 198.071 501.633 206.541 521.613 233.555C533.331 249.399 537.642 269.457 540.124 289.007C540.299 290.381 540.466 291.756 540.625 293.132Z" fill="#DEC8FE"/>
<path d="M75.3061 444.367C72.6089 435.812 70.5991 425.878 68.88 416.834C63.8349 380.151 61.6304 343.602 62.0353 306.445C62.644 287.08 62.9351 267.698 65.9319 248.538C65.9005 248.531 65.8687 248.527 65.8375 248.518C65.8365 248.523 65.8353 248.529 65.8343 248.534C63.2499 248.544 60.4468 248.769 57.6779 249.101C52.1225 289.534 53.2725 330.74 55.9248 371.385C58.0204 400.296 60.6177 429.915 70.9699 457.142C73.8575 457.104 76.712 457.041 79.6313 456.913C78.01 452.799 76.617 448.583 75.3061 444.367Z" fill="#FFB802"/>
<path d="M572.399 370.825C570.67 397.736 570.044 425.001 564.559 451.476C564.321 452.669 564.082 453.854 563.835 455.047C561.448 455.062 559.052 455.044 556.597 454.978C556.589 454.986 556.59 455.003 556.581 455.011L556.573 455.011L555.428 455.289C555.506 454.951 555.575 454.614 555.653 454.276C557.494 445.818 559.196 437.336 559.886 428.695C563.22 397.112 564.238 365.428 567.367 333.847C568.714 312.808 567.952 291.731 567.265 270.687C566.871 262.585 566.861 254.405 565.845 246.361C568.15 246.315 570.646 246.438 573.11 246.651C573.455 246.68 573.8 246.708 574.137 246.745C575.268 256.649 575.171 266.71 575.655 276.673C577.275 308.06 575.762 339.627 572.399 370.825Z" fill="#FFB802"/>
<path d="M600.813 251.907C598.336 266.938 597.947 282.229 596.547 297.394C594.993 315.834 595.893 334.357 594.421 352.797C592.537 376.657 592.401 400.576 592.79 424.496C593.196 433.524 593.447 442.661 594.526 451.664C597.425 450.625 600.05 449.343 602.426 447.844C601.208 436.348 600.891 424.75 600.911 413.206C600.216 387.23 602.164 361.335 603.538 335.422C603.629 319.889 603.85 304.936 605.508 289.375C606.05 278.217 606.855 267.056 608.523 256.031C606.138 254.356 603.535 252.996 600.813 251.907Z" fill="#FFB802"/>
<path d="M33.4765 355.934C31.5238 337.31 31.934 318.539 29.8911 299.916C28.2503 285.952 27.4463 271.857 25.1327 258.009C25.0015 258.091 24.8785 258.173 24.7553 258.255C22.1629 259.978 19.8164 262.045 17.8228 264.498C19.1764 273.621 20.0379 282.826 20.7271 292.04C22.7946 307.742 23.4099 322.871 23.9021 338.59C25.9613 364.778 28.5948 390.933 28.5784 417.244C28.8492 426.949 28.8903 436.696 28.3653 446.41C30.7034 448.559 33.3287 450.421 36.2905 451.972C36.8236 444.145 36.8565 436.261 36.9961 428.451C36.7581 404.232 35.987 380.03 33.4765 355.934Z" fill="#FFB802"/>
<path d="M522.781 318.54C522.327 341.992 518.491 365.523 513.857 388.59C512.113 397.271 510.138 406.204 504.997 413.413C498.329 422.763 487.298 427.893 476.481 431.752C449.197 441.485 420.273 445.661 391.483 448.871C348.579 453.655 305.377 456.394 262.195 455.392C240.45 454.888 218.722 453.432 197.129 450.798C178.068 448.473 159.27 446.945 142.653 436.9C130.509 429.559 121.208 417.949 115.219 405.204C107.441 388.651 104.753 370.168 103.658 351.913C102.369 330.398 103.163 308.82 103.958 287.281C104.319 277.509 104.729 267.497 108.46 258.458C116.101 239.942 135.776 229.559 154.74 223.11C206.8 205.409 263.039 206.143 318.026 206.179C368.445 206.212 419.995 205.671 467.738 221.876C482.222 226.792 496.74 233.627 506.285 245.578C514.467 255.823 518.232 268.905 520.345 281.845C522.331 294.003 523.02 306.261 522.781 318.54Z" fill="#704FE6"/>
<path d="M329.056 390.233C340.959 389.278 352.789 387.654 364.48 385.226C373.142 383.358 381.707 381.049 390.083 378.16C395.999 376.06 401.798 373.662 407.429 370.888C411.219 368.96 414.906 366.855 418.462 364.518C420.996 362.786 423.434 360.93 425.771 358.937C427.421 357.451 428.995 355.901 430.501 354.266C431.691 352.875 432.803 351.439 433.852 349.938C434.602 348.746 435.293 347.533 435.935 346.28C436.39 345.256 436.808 344.227 437.186 343.173C437.454 342.25 437.691 341.325 437.893 340.387C438.022 339.531 438.12 338.679 438.188 337.818C438.202 336.988 438.185 336.162 438.139 335.333C438.05 334.592 437.944 333.858 437.819 333.124C437.61 332.237 437.372 331.364 437.1 330.491C436.698 329.413 436.252 328.362 435.759 327.324C435.222 326.33 434.653 325.354 434.051 324.394C433.095 323.016 432.076 321.694 430.994 320.411C429.521 318.791 427.973 317.263 426.354 315.795C423.993 313.786 421.521 311.937 418.954 310.194C415.273 307.817 411.448 305.693 407.517 303.749C401.694 300.992 395.71 298.648 389.606 296.601C380.781 293.762 371.79 291.538 362.688 289.812C354.323 288.287 345.895 287.174 337.431 286.426C334.248 286.15 331.06 285.925 327.869 285.741C314.528 285.081 301.168 285.237 288.879 286.179C276.991 287.151 265.184 288.771 253.504 291.19C244.859 293.05 236.326 295.361 227.97 298.241C222.1 300.323 216.344 302.687 210.757 305.442C206.808 307.461 202.968 309.655 199.267 312.095C196.828 313.776 194.475 315.562 192.222 317.479C190.501 319.026 188.865 320.648 187.311 322.363C186.157 323.731 185.068 325.141 184.049 326.613C183.348 327.723 182.698 328.852 182.096 330.019C181.634 331.031 181.216 332.056 180.84 333.106C180.568 334.021 180.331 334.938 180.133 335.873C180.011 336.651 179.916 337.433 179.844 338.219C179.817 339.132 179.822 340.039 179.866 340.95C179.956 341.813 180.077 342.666 180.23 343.52C180.444 344.416 180.694 345.3 180.977 346.176C181.337 347.125 181.74 348.053 182.175 348.973C182.767 350.094 183.41 351.179 184.099 352.239C184.993 353.509 185.94 354.731 186.942 355.916C188.438 357.574 190.017 359.134 191.676 360.623C193.94 362.552 196.309 364.34 198.768 366.019C202.498 368.461 206.388 370.632 210.386 372.605C216.11 375.34 222.012 377.665 227.97 379.664C236.855 382.569 245.939 384.795 255.122 386.541C267.184 388.736 279.373 390.086 291.615 390.731C304.442 391.314 317.287 391.125 330.089 390.146L329.056 390.233ZM270.258 405.028C256.045 403.369 241.876 400.652 228.177 396.513C218.165 393.489 208.36 389.726 199.106 384.83C187.742 378.813 176.911 370.786 169.923 359.81C166.373 354.232 164.232 347.877 163.838 341.271C163.393 333.808 165.566 326.326 169.341 319.927C177.299 306.453 190.917 297.474 204.61 290.631C216.85 284.508 230.099 280.244 243.379 277.063C258.456 273.457 273.777 271.303 289.217 270.107C306.61 268.766 324.202 268.988 341.587 270.688C357.227 272.176 372.743 274.922 387.823 279.298C400.627 283.011 413.344 287.882 424.726 294.895C431.745 299.215 438.238 304.293 443.629 310.548C446.653 314.06 449.12 317.986 451.048 322.193C452.939 326.32 453.834 330.752 454.191 335.242C454.824 343.256 451.9 351.514 447.598 358.17C443.554 364.419 438.232 369.722 432.352 374.248C422.635 381.743 411.409 387.272 399.97 391.592C372.897 401.823 343.739 406.143 314.912 406.988C311.966 407.075 309.016 407.118 306.066 407.118C294.104 407.118 282.131 406.409 270.258 405.028Z" fill="white"/>
<path d="M244.8 338.056C244.719 333.748 248.306 329.897 252.67 329.897C257.041 329.897 260.747 333.347 260.829 337.768C260.91 342.075 257.322 345.926 252.958 345.926C248.588 345.926 244.881 342.476 244.8 338.056Z" fill="white"/>
<path d="M301.015 338.056C300.933 333.748 304.521 329.897 308.885 329.897C313.255 329.897 316.962 333.347 317.043 337.768C317.124 342.075 313.537 345.926 309.173 345.926C304.803 345.926 301.096 342.476 301.015 338.056Z" fill="white"/>
<path d="M356.07 338.056C355.989 333.748 359.576 329.897 363.94 329.897C368.311 329.897 372.017 333.347 372.099 337.768C372.18 342.075 368.593 345.926 364.228 345.926C359.858 345.926 356.152 342.476 356.07 338.056Z" fill="white"/>
</g>
<defs>
<clipPath id="clip0_8651_26980">
<rect width="632.533" height="453.198" fill="white" transform="translate(0.582031 90.4971)"/>
</clipPath>
</defs>
</svg>
