<?xml version="1.0" encoding="UTF-8"?><svg id="b" xmlns="http://www.w3.org/2000/svg" width="1011.36566" height="278.06407" viewBox="0 0 1011.36566 278.06407"><g id="c"><path d="m990.57324,139.07208l3.81384-3.80811c10.97302-10.9856,16.99951-25.58557,16.97852-41.11011-.02112-15.52588-6.09497-30.10815-17.09448-41.06274l-17.97412-17.97681-17.97937-17.97607C947.3656,6.13824,932.77881.06695,917.25427.04522c-15.52466-.02173-30.12207,6.00732-41.10559,16.97583l-3.77454,3.77124-3.80798-3.81372C857.58057,6.00543,842.98059-.02106,827.45593.00006c-15.52588.021-30.10815,6.09497-41.06274,17.09436l-17.97681,17.97412-17.97607,17.97937c-11,10.95203-17.07129,25.53882-17.09302,41.06348-.02173,15.52441,6.00732,30.12183,16.97583,41.10547l3.77173,3.7749-3.81421,3.80835c-10.97314,10.9856-16.99951,25.58557-16.97852,41.11011.02112,15.52588,6.09497,30.10815,17.09448,41.06274l17.97412,17.97681,17.97925,17.97607c10.95215,11,25.53894,17.07129,41.06348,17.09302s30.12195-6.00732,41.10547-16.97583l3.7749-3.77161,3.80835,3.81409c10.9856,10.97314,25.58569,16.99951,41.11011,16.97852,15.52588-.021,30.10815-6.09497,41.06274-17.09436l17.97681-17.97412,17.97607-17.97937c11.00012-10.95203,17.07141-25.53882,17.09314-41.06348.02173-15.52454-6.00745-30.12183-16.97595-41.10547l-3.77185-3.77515Zm-100.80164-108.40649c7.33276-7.32764,17.08911-11.35425,27.4563-11.33984,10.37256.01453,20.11292,4.06958,27.43005,11.4176l17.97412,18.03528,18.0321,17.97412c7.34863,7.31653,11.40503,17.05762,11.42078,27.42871.01575,10.36938-4.01416,20.12158-11.3418,27.45972l-3.79736,3.79163-16.89148-16.90613,14.55664-14.48145h-42.52197v42.52783l14.3313-14.41296,16.88159,16.89612-11.27417,11.25696c-7.33813,7.32764-17.08911,11.35437-27.4563,11.33984-10.37256-.01514-20.11304-4.0708-27.43005-11.4176l-11.15466-11.1925,11.15454-11.15369c11.00146-10.95728,17.07141-25.53882,17.09448-41.06348.02173-15.52441-6.00745-30.1272-16.97656-41.11084l-11.2616-11.27856,3.77405-3.77075Zm-17.43848,108.36646l.00098-.00098.00073.00073-.00098.00098-.00073-.00073Zm-108.36548-17.43799c-7.32764-7.33301-11.35425-17.08911-11.33984-27.4563.01453-10.37256,4.06958-20.11304,11.4176-27.43018l18.0354-17.97412,17.97412-18.03198c7.31653-7.34888,17.0575-11.40503,27.42871-11.4209,10.36926-.01587,20.12146,4.01416,27.45959,11.3418l3.79175,3.79736-16.90674,16.89209-14.48145-14.55652v42.52197h42.52783l-14.41309-14.33142,16.89673-16.88208,11.25696,11.27405c7.32776,7.33826,11.35437,17.08911,11.33984,27.45642-.01514,10.37256-4.07068,20.11279-11.4176,27.42993l-11.19275,11.15491-11.15344-11.15417c-10.95728-11.00146-25.53882-17.07129-41.06335-17.09448-15.52454-.02173-30.1272,6.00757-41.11072,16.97656l-11.27844,11.26135-3.77112-3.77429Zm90.92847,125.80444c-7.33289,7.32764-17.08911,11.35425-27.4563,11.33984-10.37256-.01453-20.11292-4.06958-27.43005-11.4176l-17.97412-18.03528-18.0321-17.97412c-7.34863-7.31653-11.40503-17.05762-11.4209-27.42871-.01575-10.36938,4.01416-20.12158,11.34192-27.45972l3.79773-3.79199,16.89172,16.90649-14.55652,14.48145h42.52197v-42.52783l-14.33142,14.41296-16.88184-16.89636,11.2738-11.25671c7.33813-7.32764,17.08911-11.35437,27.4563-11.33984,10.37256.01514,20.11292,4.0708,27.43005,11.4176l11.15491,11.19287-11.1543,11.15332c-11.00134,10.95728-17.07129,25.53882-17.09424,41.06348-.02173,15.52441,6.00732,30.1272,16.97644,41.11072l11.26135,11.27844-3.77441,3.771Zm125.72681-36.04199l-18.0354,17.97412-17.97412,18.03198c-7.31641,7.34875-17.0575,11.40503-27.42871,11.4209-10.36926.01575-20.12146-4.01416-27.45972-11.3418l-3.79187-3.79773,16.90637-16.89172,14.48145,14.55652v-42.52197h-42.52783l14.41309,14.33142-16.89648,16.88171-11.25659-11.27368c-7.32764-7.33826-11.35437-17.08911-11.33984-27.45642.01514-10.37256,4.0708-20.11279,11.41748-27.42993l11.19263-11.15454,11.15308,11.15381c10.95715,11.00146,25.53882,17.07129,41.06323,17.09448,15.52466.02173,30.12732-6.00757,41.11084-16.97656l11.27881-11.26172,3.77124,3.77466c7.32764,7.33289,11.35437,17.08911,11.33984,27.4563-.0144,10.37256-4.06934,20.11304-11.41748,27.43018Z" style="fill:#704fe6; stroke-width:0px;"/><path d="m270.78186,194.93536c0,9.89539-8.05115,17.94653-17.94751,17.94653s-17.94757-8.05115-17.94757-17.94653h-27.77985c0,25.21289,20.51343,45.72632,45.72742,45.72632s45.72736-20.51343,45.72736-45.72632v-102.99731h-27.77985v102.99731Z" style="stroke-width:0px;"/><rect x="207.10693" y="21.11041" width="27.77985" height="153.10181" style="stroke-width:0px;"/><path d="m687.14246,131.81988c-7.92883-11.5979-19.24316-18.22925-32.71936-19.17615-13.87634-.97498-29.06372,4.40442-41.63281,14.38428v-19.90454l16.08496.04163-29.97266-29.97351-29.97937,29.97766,16.08716-.04541v25.59534c0,7.14014.91296,13.9812,2.62427,20.39587l-12.74207,13.90845-.5575.8147c-3.02905,4.42969-8.04041,7.07422-13.40723,7.07422-3.69519,0-7.17285-1.56152-9.63953-4.23242,1.36487-4.33179,2.10413-8.93848,2.10413-13.71509v-65.02686h-27.77985v65.02686c0,9.89636-8.05115,17.94751-17.94751,17.94751s-17.94757-8.05115-17.94757-17.94751v-65.02686h-27.77985v65.02686c0,9.89636-8.05115,17.94751-17.94751,17.94751s-17.94659-8.05115-17.94659-17.94751v-65.02686h-27.77979v65.02686c0,9.89636-8.05115,17.94751-17.94757,17.94751s-17.94751-8.05115-17.94751-17.94751V21.11041h-27.77985v135.85449c0,25.21387,20.51343,45.72729,45.72736,45.72729,12.36823,0,23.59772-4.94385,31.83746-12.94946,8.23975,8.00562,19.46924,12.94946,31.83746,12.94946s23.59729-4.94385,31.83673-12.9491c8.23969,8.00525,19.46912,12.9491,31.83722,12.9491,10.29346,0,19.80157-3.42139,27.45233-9.18311,7.20508,5.86145,16.28137,9.18311,25.81042,9.18311,14.18518,0,27.45654-6.81763,35.71838-18.29126l4.41687-4.82104c11.4668,13.96179,28.2373,22.68115,47.53003,23.09875.40784.00964.7915.01355,1.15088.01355,16.85095,0,32.20447-9.2583,40.06812-24.16113,7.86377-14.90283,6.84106-32.8009-2.66968-46.71118Zm-21.89941,33.74683c-3.0874,5.85229-8.88147,9.3457-15.49902,9.3457l-.5293-.00586c-13.65405-.29614-23.25122-6.8916-29.15417-16.0625l4.56262-4.98022c7.81226-8.55518,19.2655-14.11816,27.85278-13.50928,4.91028.34485,8.63867,2.6145,11.73584,7.14404,3.73413,5.46204,4.11963,12.21667,1.03125,18.06812Z" style="stroke-width:0px;"/><polygon points="93.64783 90.88677 110.93695 108.17596 133.10779 86.00518 110.93695 63.83428 93.64783 81.12347 76.3587 63.83428 54.18793 86.00518 76.3587 108.17596 93.64783 90.88677" style="stroke-width:0px;"/><path d="m157.31964,91.93756l-29.97931,29.97778,16.09265-.04541v35.09595c0,9.89624-8.05109,17.94653-17.94751,17.94653h-63.67493c-9.89636,0-17.94751-8.05029-17.94751-17.94653v-35.09644l16.08899.04175-29.97601-29.97363L0,121.91534l16.08319-.04541v35.09595c0,25.21387,20.51343,45.72632,45.72736,45.72632h63.67493c25.21393,0,45.72736-20.51245,45.72736-45.72632v-35.09644l16.07953.04175-29.97272-29.97363Z" style="stroke-width:0px;"/></g></svg>