<svg width="184" height="183" viewBox="0 0 184 183" fill="none" xmlns="http://www.w3.org/2000/svg">
<g id="a" clip-path="url(#clip0_9303_108)">
<path id="Vector" d="M119.464 57.5136C119.479 47.338 115.527 37.7686 108.338 30.5681L89.531 11.7329C82.3306 4.54329 72.7611 0.591707 62.5854 0.605996C52.4093 0.620779 42.8514 4.59947 35.6712 11.8095L23.8887 23.592L12.1063 35.3744C4.89625 42.5546 0.91706 52.1131 0.902771 62.2887C0.888483 72.4643 4.84006 82.0338 12.0297 89.2342L34.5053 111.728L26.8097 119.423L52.8348 121.219L51.0397 95.1931L43.4413 102.792L20.9726 80.3051C16.1699 75.4956 13.5306 69.1034 13.5399 62.3069C13.5496 55.5099 16.2074 49.1252 21.0236 44.3292L32.8447 32.548L44.6259 20.7268C49.4215 15.9111 55.8062 13.2533 62.6037 13.2431C69.4002 13.2339 75.7923 15.8731 80.6019 20.6758L99.3949 39.4974C104.198 44.307 106.837 50.699 106.827 57.4955C106.817 64.293 104.159 70.6776 99.3439 75.4734L87.5227 87.2546L96.4785 96.2103L108.26 84.4284C115.471 77.2478 119.45 67.6897 119.464 57.5136Z" fill="#704FE6"/>
<path id="Vector_2" d="M64.5367 125.954C64.5224 136.129 68.4738 145.699 75.6635 152.899L94.4701 171.734C101.671 178.924 111.24 182.876 121.416 182.861C131.592 182.846 141.15 178.868 148.33 171.658L160.112 159.875L171.895 148.093C179.105 140.913 183.084 131.354 183.098 121.179C183.113 111.003 179.161 101.433 171.971 94.233L149.496 71.7397L157.191 64.0441L131.166 62.2485L132.961 88.2741L140.56 80.6757L163.029 103.162C167.831 107.972 170.47 114.364 170.461 121.16C170.451 127.957 167.794 134.342 162.978 139.138L151.156 150.919L139.375 162.74C134.58 167.556 128.195 170.214 121.397 170.224C114.601 170.233 108.209 167.594 103.399 162.791L84.6062 143.97C79.8036 139.16 77.1644 132.768 77.1737 125.972C77.1839 119.174 79.8418 112.79 84.6573 107.994L96.4784 96.2127L87.5226 87.2569L75.7407 99.0388C68.53 106.219 64.5515 115.778 64.5367 125.954Z" fill="#704FE6"/>
<path id="Vector_3" d="M57.7812 64.2676C47.6055 64.2533 38.0362 68.2048 30.8357 75.3944L12.0005 94.2011C4.81086 101.401 0.859286 110.971 0.873574 121.147C0.888357 131.323 4.86705 140.881 12.0771 148.061L23.8595 159.843L35.642 171.626C42.8222 178.836 52.3806 182.815 62.5562 182.829C72.7319 182.844 82.3014 178.892 89.5018 171.702L111.995 149.227L119.691 156.922L121.486 130.897L95.4607 132.692L103.059 140.291L80.5727 162.759C75.7631 167.562 69.371 170.201 62.5745 170.192C55.7775 170.182 49.3928 167.525 44.5967 162.708L32.8155 150.887L20.9944 139.106C16.1787 134.311 13.5209 127.926 13.5107 121.128C13.5014 114.332 16.1407 107.94 20.9434 103.13L39.765 84.3372C44.5746 79.5345 50.9665 76.8953 57.7631 76.9046C64.5606 76.9148 70.9452 79.5727 75.741 84.3882L87.5222 96.2093L96.4779 87.2536L84.696 75.4716C77.5154 68.261 67.9573 64.2824 57.7812 64.2676Z" fill="#704FE6"/>
<path id="Vector_4" d="M126.219 119.195C136.394 119.21 145.964 115.258 153.164 108.069L171.999 89.2621C179.189 82.0616 183.14 72.4921 183.126 62.3165C183.111 52.1404 179.133 42.5825 171.923 35.4022L160.14 23.6198L148.358 11.8374C141.178 4.6273 131.619 0.648116 121.444 0.633828C111.268 0.619539 101.698 4.57112 94.498 11.7607L72.0046 34.2363L64.3091 26.5408L62.5135 52.5659L88.5391 50.7708L80.9406 43.1723L103.427 20.7036C108.237 15.901 114.629 13.2617 121.425 13.2709C128.222 13.2807 134.607 15.9384 139.403 20.7547L151.184 32.5758L163.005 44.357C167.821 49.1525 170.479 55.5372 170.489 62.3347C170.498 69.1313 167.859 75.5234 163.056 80.3329L144.235 99.1259C139.425 103.929 133.033 106.568 126.237 106.559C119.439 106.548 113.055 103.89 108.259 99.0749L96.4776 87.2538L87.5219 96.2095L99.3038 107.991C106.484 115.202 116.042 119.181 126.219 119.195Z" fill="#704FE6"/>
</g>
<defs>
<clipPath id="clip0_9303_108">
<rect width="182.253" height="182.253" fill="white" transform="translate(0.873535 0.605957)"/>
</clipPath>
</defs>
</svg>
